<svg xmlns="http://www.w3.org/2000/svg" style="display: none;">
    <symbol id="logo" viewBox="0 0 147 216">
        <svg xmlns="http://www.w3.org/2000/svg" viewBox="0 0 147 216" fill="none">
          <g clip-path="url(#clip0_1_7)">
            <path d="M74.5487 215.431C73.2331 213.846 71.9468 212.386 70.7421 210.854C50.1582 184.698 31.5284 157.268 16.5762 127.46C10.9988 116.338 6.19813 104.895 2.95315 92.847C0.754356 84.6793 -0.443568 76.3916 0.156515 67.9182C1.08042 54.8969 5.10665 42.9079 12.5749 32.1843C23.7409 16.1499 38.8426 5.67085 58.0045 1.73186C81.2062 -3.03793 102.277 2.01711 120.531 17.2728C134.491 28.9381 142.7 44.0624 145.925 61.9214C147.945 73.1091 147.009 84.1247 144.056 95.0429C140.87 106.828 136.217 118.036 130.866 128.975C122.236 146.614 111.992 163.301 100.975 179.532C92.9739 191.331 84.5546 202.827 75.7172 214.021C75.373 214.458 75.0084 214.879 74.5487 215.431ZM73.4958 29.1486C48.3602 29.1622 27.9393 49.5838 27.98 74.6892C28.0208 99.7946 48.4847 120.191 73.5976 120.191C98.7106 120.191 119.043 99.7018 119.036 74.4311C119.021 49.491 98.5498 29.135 73.4958 29.1486Z" fill="#222222"/>
            <path d="M73.4955 29.1485C98.5495 29.1349 119.011 49.4909 119.027 74.4243C119.027 99.6949 98.6922 120.178 73.5883 120.184C48.4845 120.191 28.0024 99.7719 27.9707 74.6823C27.939 49.5928 48.3531 29.1621 73.4955 29.1485Z" fill="white"/>
            <path d="M80.1304 48.5469C80.2685 48.0534 80.7146 47.7614 80.3976 47.1434C80.2595 46.8762 80.649 46.3171 80.8369 45.9073C81.1268 45.269 81.8038 45.0018 82.345 45.4546C84.0298 46.8355 86.0995 47.5825 87.8183 48.9227C93.4794 53.3416 96.9259 59.0577 97.8679 66.1546C99.0409 75.0015 96.2828 82.5875 89.8676 88.7586C85.8119 92.6591 80.8731 94.8572 75.2844 95.5726C74.7727 95.6382 74.2609 95.6903 73.7491 95.7582C73.6541 95.7875 73.5635 95.8294 73.4797 95.8827C73.7673 97.198 74.0367 98.5155 74.347 99.8217C74.63 101.015 74.3809 100.863 75.6853 100.87C77.0439 100.87 78.3867 100.87 79.7364 100.87C80.9184 100.87 81.3215 101.273 81.3215 102.43C81.3215 104.127 81.3215 104.127 79.6073 104.127C73.6903 104.127 67.7732 104.127 61.8562 104.139C61.2697 104.139 61.0025 104.01 61.0863 103.383C61.1078 103.046 61.1078 102.708 61.0863 102.371C61.0863 101.284 61.5006 100.874 62.608 100.87C64.098 100.87 65.588 100.843 67.0758 100.87C67.6373 100.886 67.8932 100.714 68.0019 100.15C68.2624 98.8075 68.5635 97.4719 68.8805 96.1408C68.9756 95.7356 68.9099 95.5816 68.4684 95.5182C65.9294 95.1573 63.456 94.4314 61.1247 93.3631C60.93 93.2783 60.7189 93.2373 60.5065 93.2431C59.6551 93.2748 59.0913 92.4938 59.44 91.7332C59.5736 91.423 59.7248 91.1206 59.8929 90.8277C59.9699 90.6986 60.1691 90.6488 60.2665 90.5266C60.533 90.2216 60.7654 89.8883 60.9594 89.5328C60.9979 89.4535 60.7035 89.1411 60.5065 89.0347C56.4133 86.8434 53.1048 83.4315 51.0411 79.2733C49.4424 76.104 48.5502 72.7083 48.6611 69.1723C48.951 60.2054 52.9636 53.3846 60.973 49.2057C66.8131 46.1564 72.9385 45.9254 79.1431 48.1847L80.1304 48.5469ZM60.0378 62.1908C60.0785 61.2852 60.1035 60.3797 60.1737 59.4901C60.1873 59.318 60.382 59.1618 60.4907 58.9966C60.5941 59.1808 60.6704 59.3791 60.7171 59.5851C60.7443 59.9904 60.6741 60.4024 60.7058 60.8053C60.7669 61.5727 60.8779 62.3334 60.9504 63.1008C60.9707 63.3136 61.0115 63.5988 60.9028 63.7347C60.5971 64.115 60.7964 64.4319 60.9776 64.7149C61.3603 65.3148 61.7905 65.8875 62.2208 66.4557C62.3185 66.6044 62.469 66.7104 62.6419 66.7523C63.2171 66.7523 63.3824 67.1711 63.6111 67.5786C63.8398 67.9861 64.1071 68.5067 64.4943 68.7784C64.6437 68.8683 64.7667 68.996 64.851 69.1486C64.9353 69.3012 64.9778 69.4734 64.9743 69.6477C64.9743 70.3268 65.3842 70.7796 65.7329 71.2685C66.0092 71.6647 66.3376 71.8526 66.8086 71.5991C65.5291 70.7615 65.5087 70.6935 66.2288 69.367C66.4417 68.9708 66.3624 68.6878 65.9707 68.4818C65.6151 68.2985 65.2506 68.1309 64.8384 67.9295L66.1971 66.3674C65.8348 66.0822 65.4703 65.84 65.1011 66.2656C65.0233 66.37 64.925 66.4576 64.8122 66.5229C64.6995 66.5883 64.5746 66.63 64.4452 66.6457C64.3159 66.6614 64.1847 66.6506 64.0596 66.614C63.9345 66.5775 63.8181 66.5159 63.7175 66.4331C63.4209 66.2067 63.2647 65.7313 63.1696 65.3374C62.9182 64.2055 63.8851 63.5264 64.3018 62.6526C64.3403 62.5733 64.5056 62.5281 64.6188 62.5122C65.2981 62.4194 65.9548 62.3334 66.4485 62.9831C66.5096 63.0365 66.5825 63.0746 66.6613 63.0943C66.74 63.114 66.8223 63.1147 66.9014 63.0963C67.8072 62.8314 68.9123 63.7324 68.8488 64.656C68.8468 65.0627 68.874 65.4689 68.9303 65.8717H69.1885C69.2519 65.5525 69.3425 65.2378 69.3742 64.9164C69.467 63.9882 69.8271 63.5309 70.7464 63.4268C71.5684 63.3294 72.3202 63.2253 72.3768 62.1726C72.3768 62.1568 72.4041 62.1432 72.4176 62.1296C72.7958 62.1115 73.097 61.9033 73.4389 61.8535C74.1545 61.7289 74.8519 61.5976 75.4316 61.12C75.4543 61.0996 75.5086 61.12 75.5494 61.12C75.92 61.0899 76.2922 61.0846 76.6635 61.1041C76.8924 61.1674 77.1107 61.2643 77.3111 61.3916L77.2364 61.5705H76.6341V61.6995H78.0561C77.1368 61.2105 77.0009 60.794 77.4696 60.0039C76.8152 59.5331 76.1427 60.0039 75.4475 60.0039C75.9592 59.4244 77.0032 59.146 77.6259 59.4176C78.3053 59.7142 78.9302 60.1579 79.7545 59.8998C79.9674 59.8342 80.2912 59.9519 80.2527 59.6191C80.23 59.4267 79.9832 59.232 79.7998 59.1007C79.6399 59.0325 79.4685 58.9956 79.2948 58.992V58.829L79.6707 58.7317C79.4239 57.8601 79.1861 57.0248 78.9755 56.2868C78.5996 56.323 78.2758 56.4362 78.0267 56.3479C77.925 56.2781 77.8418 56.1845 77.7846 56.0752C77.7274 55.9659 77.6977 55.8442 77.6983 55.7209C77.7753 54.7972 77.4221 54.2834 76.3963 54.0117C76.308 54.1973 76.2242 54.3943 76.1245 54.5844C76.0249 54.7746 75.8393 54.9399 75.8143 55.1345C75.6739 56.1532 75.6875 56.1532 74.7206 56.3343C74.662 56.5815 74.569 56.8193 74.4443 57.0406C74.3073 57.2186 74.1054 57.3349 73.8827 57.3644C73.7763 57.3644 73.5747 57.0746 73.5612 56.9116C73.5734 56.6403 73.6175 56.3713 73.6925 56.1102C73.7152 55.9653 73.7786 55.7639 73.7106 55.6801C73.3305 55.183 72.9158 54.7132 72.4697 54.2743C71.8198 53.6699 71.899 52.9455 72.7165 52.5968C72.9679 52.4882 73.2532 52.4587 73.5045 52.3546C73.6551 52.2691 73.7937 52.1641 73.9167 52.0422L74.9606 52.2686L74.8179 51.7955C75.1463 51.8385 75.5244 51.7728 75.7079 51.9313C76.206 52.3659 76.4891 52.0965 76.7699 51.7185C76.8731 51.5484 76.9595 51.3687 77.0281 51.182C77.7821 51.3857 78.5135 52.1056 78.3686 52.6512C78.192 53.319 77.567 53.2873 76.976 53.1741C77.6282 53.4593 77.61 53.4684 77.9723 54.1928C78.1433 54.4687 78.3389 54.7285 78.5566 54.9693L78.6404 54.9082C78.6155 54.7452 78.5883 54.5799 78.5452 54.3128L79.1997 54.9263L79.3288 54.838C79.1975 54.4139 79.0646 53.9906 78.9303 53.568L79.134 53.448L79.7069 54.2019L80.2572 54.0026C79.9039 53.3869 79.2087 52.9885 79.3514 52.178C79.3673 52.0852 79.1748 51.972 79.125 51.8498C78.8396 51.2431 78.0969 51.0371 77.8546 50.3851C77.8365 50.3376 77.567 50.3466 77.4357 50.3851C77.3071 50.4485 77.1894 50.5317 77.0869 50.6319L76.9851 50.5504L77.2386 50.0501C76.6476 50.1452 76.5593 50.2199 76.5978 50.6228C76.6545 51.3359 76.4303 51.5578 75.6739 51.508V50.0003C75.3705 49.8644 75.2912 50.1157 75.1191 50.3896C74.947 50.6636 74.6368 50.7858 74.2654 51.0688L74.2836 50.616C73.962 50.4757 73.5861 50.4259 73.3959 50.2085C73.0585 49.826 72.7369 49.7558 72.4652 49.912C72.2621 49.785 72.0663 49.6467 71.8787 49.4977C71.7971 49.4062 71.7333 49.3002 71.6907 49.1853C71.573 48.9453 71.5209 48.6239 71.333 48.4813C70.9774 48.2119 70.5313 48.067 70.1486 47.8293C69.9652 47.7138 69.8543 47.4875 69.6958 47.3426C69.5372 47.1977 69.304 46.9623 69.1432 46.9917C67.8366 47.2181 66.5413 47.5237 65.237 47.7659C64.8067 47.8474 64.6754 48.0874 64.7343 48.445C64.886 49.4072 64.5078 50.1542 63.8964 50.8582C63.5839 51.2137 63.3168 51.6257 63.4141 52.2007C63.4775 52.5742 63.4843 53.0677 62.9092 53.2714L63.0427 52.1169C62.9612 52.9658 62.3838 53.4458 61.8018 53.9393C61.4112 54.269 61.0498 54.6318 60.7217 55.0236C60.1804 55.6733 59.7412 56.6083 60.0197 57.2602C60.459 58.2789 59.9291 59.0939 59.8634 59.9768C59.8225 60.7192 59.8812 61.4638 60.0378 62.1908ZM91.5546 68.2328L90.6489 67.8072L90.4768 67.9C90.9455 68.7648 89.7974 69.8084 91.0021 70.6754C91.2421 70.4196 91.661 70.1774 91.695 69.8922C91.8082 68.8938 92.2974 68.2034 93.1805 67.6646C93.7104 69.6341 93.9957 71.5606 93.1194 73.4576L92.8567 73.4712C92.782 72.6947 92.7072 71.9183 92.6189 70.981L90.6601 71.2957C90.4201 71.624 90.0374 71.9749 89.8608 72.4276C89.4283 73.5006 88.3798 73.9987 87.7435 74.868C87.5058 75.1917 87.0642 75.5946 87.1231 75.8505C87.1698 76.0049 87.1773 76.1686 87.1449 76.3267C87.1125 76.4848 87.0411 76.6323 86.9374 76.756C86.2249 77.6978 85.8825 78.868 85.975 80.0452C86.0067 80.4822 86.0474 80.9168 86.0837 81.3582L88.0991 81.4828C88.2134 81.7435 88.3521 81.9929 88.5134 82.2275C89.0705 82.875 89.0841 82.9067 88.5384 83.5677C86.2888 86.3125 83.4121 88.4763 80.1508 89.8769C74.5938 92.2539 68.9869 92.367 63.3235 90.3115C62.1437 89.8837 62.1551 89.8588 61.7384 91.0224C61.7345 91.0612 61.7383 91.1005 61.7497 91.1378C68.4095 94.6467 78.1649 94.7236 86.1109 89.037C93.844 83.5021 97.6279 73.3195 95.2706 64.1172C93.3503 56.6264 88.8259 51.2838 81.8378 47.947C81.7132 48.1734 81.6589 48.3024 81.5819 48.4156C81.2468 48.9069 81.3555 49.1785 81.9103 49.457C82.7147 49.8885 83.4907 50.3709 84.2336 50.9013C86.9985 52.7938 89.2358 55.1323 90.3816 58.3604C90.4994 58.6955 90.5877 59.0396 90.6896 59.3814C90.907 60.1058 91.1236 60.831 91.3395 61.5569L91.5659 61.403L92.0483 62.0821L92.1366 62.0459C91.6278 60.7736 91.1176 59.5021 90.6058 58.2314L90.7553 58.1725C90.9704 58.657 91.1968 59.1346 91.3961 59.6259C91.849 60.7351 92.3019 61.8421 92.714 62.9627C92.8295 63.2796 92.8567 63.6283 92.3789 63.8162C92.1909 63.8909 92.0664 64.2418 92.0007 64.4953C91.8513 65.0431 91.8626 65.6566 91.2851 65.9736C91.6203 66.6663 91.8196 67.3839 91.5546 68.2328ZM74.3923 78.7843L74.245 78.5942C74.4715 78.4244 74.818 78.2953 74.8904 78.078C75.2029 77.1385 74.8746 76.6948 73.9846 76.1991C73.6789 76.0293 73.4638 75.6648 73.2623 75.3524C73.0788 75.0267 72.9118 74.692 72.7618 74.3496C72.6803 74.17 72.5793 74 72.4607 73.8425C72.3701 73.7338 72.2093 73.5867 72.1006 73.6025C71.3103 73.7112 71.0091 73.0909 70.6287 72.6223C70.3366 72.2624 69.9131 72.2171 69.6097 72.5951C69.544 72.6789 69.4829 72.7649 69.4195 72.8509L69.2836 72.8057C69.3479 72.6423 69.3847 72.4694 69.3923 72.294C69.3829 72.2083 69.3562 72.1253 69.3138 72.0502C69.2714 71.9751 69.2141 71.9094 69.1455 71.8571C68.8352 71.6964 67.3339 72.165 67.1528 72.4412C67.1288 72.4726 67.1146 72.5104 67.112 72.5498C67.112 73.5482 66.3761 73.8606 65.6243 74.1685C65.2053 74.3405 64.7592 74.5058 65.0966 75.0944C64.3312 75.4158 64.2339 75.7101 64.5373 76.4526C64.6454 76.7441 64.7147 77.0486 64.7433 77.3581C64.8498 78.2161 64.834 79.0809 65.4567 79.8143C65.8983 80.335 66.0545 80.9462 65.5404 81.5869C65.194 82.0102 64.8951 82.4766 64.5758 82.9248L64.0912 83.6039C63.8648 83.9163 63.6383 84.2287 63.4119 84.5366C63.2126 84.8037 62.839 85.0663 62.8412 85.3289C62.8412 85.8156 62.574 86.0579 62.3226 86.3748C61.8448 86.9724 61.8833 87.3233 62.3611 87.7331C62.6012 87.5361 62.891 87.3912 63.0405 87.1558C63.2941 86.7551 63.7515 86.7438 64.064 86.5016C64.2951 86.3147 64.5699 86.1896 64.8626 86.1381C65.1554 86.0867 65.4565 86.1105 65.7375 86.2073C66.3398 86.3839 66.5821 86.2775 66.7768 85.7545C67.1907 85.8436 67.6109 85.8996 68.0336 85.922C68.4098 85.8969 68.7808 85.8207 69.1364 85.6957C69.4738 85.5983 69.8633 85.5168 70.1078 85.295C70.3099 85.089 70.5639 84.9415 70.843 84.8682C71.122 84.7949 71.4158 84.7984 71.693 84.8784C73.0901 85.2542 74.1364 84.6181 75.1395 83.7737C75.4577 83.5215 75.8051 83.3086 76.1744 83.1398C76.6273 82.9135 77.1186 82.8139 77.533 82.549C77.7414 82.4132 77.9724 81.9174 77.8908 81.7997C77.4198 81.1206 77.0326 80.3078 76.0385 80.3237C75.9525 79.6242 75.7917 79.2869 74.8497 79.3344C74.8995 79.1533 74.947 78.9858 75.0082 78.7594L74.3923 78.7843ZM85.1733 55.6122L85.8051 55.4877C85.7666 55.336 85.7349 55.1821 85.6874 55.0349C85.6602 54.9444 85.5787 54.8629 85.5764 54.7746C85.5538 53.9121 85.1235 53.1899 84.6322 52.5629C83.7264 51.4468 82.8206 50.2991 81.5095 49.62C81.1788 49.4479 80.7124 49.0336 80.3772 49.6947C80.2259 49.9337 80.0563 50.1608 79.87 50.3738C80.9796 50.6183 81.3102 51.3744 81.5231 52.2437C81.5765 52.4473 81.6864 52.6317 81.8401 52.7757C82.1661 53.0768 82.4424 53.9076 82.1865 54.0389C81.5796 54.3513 81.9216 54.7022 82.071 55.0621C82.1616 55.2885 82.3496 55.5148 82.3224 55.7118C82.1707 56.8437 83.0017 57.3734 83.6607 58.0775C83.7148 57.9944 83.761 57.9065 83.7989 57.8149C83.9166 57.3621 84.0049 56.8844 84.1521 56.4339C84.2041 56.28 84.4419 56.0355 84.5167 56.0604C85.0194 56.2279 85.0488 55.8001 85.1733 55.6009V55.6122ZM72.3588 48.8571L72.2161 49.0155C72.3706 49.162 72.539 49.2931 72.7188 49.4072C72.9803 49.5618 73.2646 49.6741 73.5612 49.7399C73.7839 49.7561 74.0058 49.6989 74.193 49.5769C74.3577 49.4444 74.4999 49.2862 74.6142 49.1083C74.65 49.0538 74.6811 48.9962 74.707 48.9363L74.2315 49.0721C73.5703 48.1666 73.3257 48.1666 72.9113 49.0268L72.3588 48.8571ZM67.352 66.3041L67.1935 66.4308C67.343 66.5463 67.4902 66.7546 67.6464 66.7614C68.0993 66.7817 68.2782 67.0466 68.5001 67.3794C68.8262 67.8774 69.1568 68.4366 70.0037 68.4433C69.6119 68.0902 69.2157 67.8615 69.0073 67.5197C68.8279 67.2146 68.5888 66.9488 68.3045 66.738C68.0201 66.5272 67.6962 66.3758 67.352 66.2927V66.3041ZM80.375 62.1183C80.8505 61.4392 80.1485 61.1902 79.8315 60.7397L79.1522 61.2151L80.375 62.1183ZM80.1485 49.1717C79.879 48.8887 79.6277 48.6216 79.2223 48.891L78.3165 49.4977C78.9619 50.1497 79.4714 49.1015 80.1508 49.1604L80.1485 49.1717ZM72.5399 70.5328C72.0281 70.1819 71.4666 69.7744 70.8778 69.4009C70.7691 69.333 70.5562 69.4281 70.3909 69.4485C70.4747 69.6024 70.52 69.8514 70.6446 69.9012C71.2854 70.1412 71.9534 70.3359 72.5331 70.5215L72.5399 70.5328ZM90.9863 63.1348C91.061 63.8139 91.1198 64.3572 91.1832 64.9209C91.7811 64.6922 91.7426 64.3617 90.9795 63.1234L90.9863 63.1348ZM87.6122 58.3174C88.2258 57.962 88.0356 57.6541 87.7956 57.4572C87.6711 57.3576 87.3857 57.4572 87.1729 57.4572L87.6122 58.3174ZM76.0634 53.1107L75.5313 52.2188L74.9674 52.6715L76.0634 53.1107ZM90.2661 64.0312L90.4496 64.072V62.9378H90.2661V64.0312ZM73.962 48.2594C73.4842 47.7682 72.952 48.1281 72.4471 48.033V48.1802L73.962 48.2594ZM78.4909 50.0704L77.4447 49.3641C77.3338 49.6856 77.5308 49.8441 78.5 50.0614L78.4909 50.0704Z" fill="#222222"/>
            <path d="M60.0377 62.1908C59.8682 61.4686 59.7959 60.7271 59.8226 59.9858C59.8883 59.1052 60.4181 58.2903 59.9788 57.2693C59.7003 56.6264 60.1396 55.6846 60.6808 55.0327C61.009 54.6408 61.3704 54.278 61.761 53.9483C62.343 53.4548 62.9204 52.9749 63.0019 52.126L62.8683 53.2805C63.4435 53.0768 63.4367 52.5832 63.3733 52.2097C63.2759 51.6347 63.5431 51.2227 63.8556 50.8673C64.4761 50.1633 64.8452 49.4162 64.6935 48.4541C64.6346 48.0851 64.7659 47.8451 65.1962 47.775C66.5005 47.5327 67.7958 47.2317 69.1024 47.0008C69.2632 46.9713 69.4873 47.2068 69.6549 47.3516C69.8225 47.4965 69.9357 47.7229 70.1078 47.8384C70.4905 48.076 70.9366 48.2209 71.2921 48.4903C71.48 48.6329 71.5321 48.9544 71.6499 49.1944C71.6925 49.3093 71.7563 49.4153 71.8379 49.5068C72.0254 49.6557 72.2212 49.794 72.4243 49.921C72.6961 49.7558 73.0176 49.835 73.355 50.2176C73.5453 50.444 73.9211 50.4847 74.2427 50.6251L74.2246 51.0778C74.596 50.7949 74.9221 50.65 75.0783 50.3987C75.2346 50.1474 75.3297 49.8735 75.6331 50.0093V51.517C76.3894 51.5668 76.6136 51.345 76.557 50.6319C76.5253 50.2289 76.6068 50.1542 77.1978 50.0591L76.9442 50.5594L77.0461 50.6409C77.1486 50.5408 77.2663 50.4575 77.3949 50.3942C77.5262 50.3512 77.7956 50.3421 77.8138 50.3942C78.0561 51.0461 78.7988 51.2521 79.0842 51.8588C79.1408 51.9811 79.3332 52.0852 79.3106 52.1871C79.177 52.9975 79.8722 53.396 80.2164 54.0117L79.6661 54.2109L79.0932 53.4571L78.8894 53.5771C79.0222 54.0011 79.1551 54.4245 79.2879 54.847L79.1589 54.9353L78.5044 54.3218C78.5475 54.589 78.5746 54.7542 78.5995 54.9172L78.5158 54.9783C78.2981 54.7376 78.1025 54.4777 77.9315 54.2019C77.5692 53.4774 77.5873 53.4684 76.9352 53.1832C77.5262 53.2963 78.1512 53.328 78.3278 52.6602C78.4727 52.1146 77.7413 51.3948 76.9873 51.191C76.9187 51.3778 76.8322 51.5574 76.7291 51.7275C76.4483 52.1056 76.1652 52.375 75.6671 51.9403C75.4836 51.7819 75.1055 51.8475 74.7771 51.8045L74.9198 52.2776L73.8759 52.0513C73.7529 52.1731 73.6143 52.2782 73.4637 52.3637C73.2124 52.4678 72.9271 52.4972 72.6757 52.6059C71.8582 52.9545 71.7699 53.6789 72.4289 54.2834C72.875 54.7223 73.2896 55.192 73.6698 55.6892C73.7377 55.7729 73.6698 55.9744 73.6517 56.1193C73.5766 56.3803 73.5325 56.6493 73.5203 56.9207C73.5339 57.0927 73.7355 57.3893 73.8419 57.3734C74.0645 57.344 74.2665 57.2276 74.4035 57.0497C74.5282 56.8283 74.6212 56.5906 74.6798 56.3434C75.6467 56.1623 75.6331 56.1623 75.7735 55.1436C75.7984 54.9489 75.9841 54.7814 76.0837 54.5935C76.1834 54.4056 76.2671 54.2064 76.3555 54.0208C77.3813 54.2924 77.7345 54.8063 77.6575 55.7299C77.6569 55.8533 77.6865 55.9749 77.7438 56.0842C77.801 56.1935 77.8841 56.2872 77.9859 56.357C78.235 56.4453 78.5588 56.3321 78.9347 56.2959C79.1453 57.0339 79.3876 57.8692 79.6299 58.7408L79.254 58.8381V59.0011C79.4277 59.0047 79.5991 59.0416 79.759 59.1097C79.9469 59.241 80.1937 59.4357 80.2119 59.6282C80.2503 59.9609 79.9265 59.8545 79.7137 59.9089C78.8894 60.1669 78.2644 59.7232 77.5851 59.4267C76.9623 59.155 75.9184 59.4267 75.4067 60.013C76.1019 60.0017 76.7653 59.5353 77.4288 60.013C76.9601 60.8031 77.096 61.2196 78.0153 61.7086H76.5932V61.5795H77.1956L77.2703 61.4007C77.0699 61.2733 76.8516 61.1764 76.6227 61.1132C76.2513 61.0936 75.8792 61.0989 75.5086 61.1291C75.4678 61.1291 75.4134 61.1109 75.3908 61.1291C74.8111 61.6067 74.1136 61.738 73.3981 61.8625C73.0629 61.9191 72.7549 62.1206 72.3768 62.1387C72.3632 62.1523 72.3383 62.1659 72.336 62.1817C72.2794 63.2344 71.5276 63.3385 70.7056 63.4359C69.7998 63.54 69.4262 63.9973 69.3334 64.9254C69.3017 65.2469 69.2111 65.5615 69.1477 65.8807H68.8895C68.8332 65.478 68.8059 65.0717 68.808 64.6651C68.8714 63.7415 67.7573 62.8405 66.8606 63.1053C66.7815 63.1237 66.6992 63.1231 66.6205 63.1034C66.5417 63.0837 66.4688 63.0456 66.4077 62.9921C65.914 62.3424 65.2483 62.4285 64.578 62.5213C64.4648 62.5371 64.2995 62.5824 64.261 62.6616C63.8443 63.5422 62.8774 64.2101 63.1287 65.3465C63.2171 65.7404 63.3801 66.2248 63.6767 66.4422C63.7773 66.525 63.8937 66.5866 64.0188 66.6231C64.1439 66.6597 64.2751 66.6704 64.4044 66.6548C64.5338 66.6391 64.6586 66.5973 64.7714 66.532C64.8841 66.4666 64.9825 66.3791 65.0603 66.2746C65.4294 65.849 65.794 66.0913 66.1563 66.3765L64.7976 67.9385C65.2098 68.14 65.5743 68.3075 65.9299 68.4909C66.3216 68.6901 66.4009 68.9799 66.188 69.376C65.4679 70.7071 65.4883 70.7705 66.7677 71.6081C66.2967 71.8617 65.9683 71.6738 65.6921 71.2776C65.3433 70.7818 64.929 70.3359 64.9335 69.6567C64.937 69.4824 64.8945 69.3103 64.8102 69.1577C64.7259 69.0051 64.6028 68.8774 64.4534 68.7874C64.0662 68.5158 63.8126 68.0223 63.5703 67.5876C63.328 67.153 63.1763 66.7704 62.6011 66.7614C62.4282 66.7194 62.2776 66.6134 62.1799 66.4648C61.7496 65.8966 61.3194 65.3329 60.9367 64.7239C60.7555 64.441 60.5563 64.124 60.862 63.7437C60.9707 63.6079 60.9299 63.3227 60.9096 63.1099C60.8371 62.3424 60.7261 61.5818 60.665 60.8144C60.6333 60.4114 60.7035 59.9994 60.6763 59.5942C60.6295 59.3881 60.5533 59.1899 60.4499 59.0056C60.3412 59.1709 60.1464 59.3271 60.1329 59.4991C60.1034 60.3888 60.0785 61.2898 60.0377 62.1908Z" fill="white"/>
            <path d="M91.5546 68.2328C91.8196 67.3839 91.6202 66.6663 91.2828 65.9577C91.8603 65.6408 91.849 65.0273 91.9984 64.4795C92.0641 64.2304 92.1886 63.8795 92.3766 63.8003C92.8544 63.6124 92.8295 63.2638 92.7117 62.9469C92.2996 61.8263 91.8444 60.7193 91.3938 59.61C91.1945 59.1188 90.9681 58.6411 90.753 58.1567L90.6035 58.2156C91.1138 59.4878 91.624 60.7593 92.1343 62.03L92.046 62.0663L91.5636 61.3871L91.3372 61.5411C91.1198 60.8136 90.9032 60.0885 90.6873 59.3656C90.5854 59.0237 90.4971 58.6864 90.3793 58.3446C89.2335 55.1164 86.9962 52.7779 84.2313 50.8854C83.4884 50.3551 82.7124 49.8726 81.908 49.4411C81.3622 49.1627 81.2445 48.891 81.5796 48.3998C81.6566 48.2866 81.711 48.1598 81.8355 47.9312C88.8236 51.268 93.3481 56.6105 95.2683 64.1014C97.6256 73.3037 93.8417 83.4862 86.1086 89.0212C78.1626 94.7078 68.4072 94.6308 61.7474 91.122C61.736 91.0846 61.7322 91.0454 61.7361 91.0065C62.1618 89.8384 62.1505 89.8746 63.3212 90.2957C68.9824 92.3512 74.5915 92.238 80.1485 89.861C83.4046 88.4644 86.2779 86.307 88.527 83.57C89.0727 82.918 89.0591 82.8773 88.5021 82.2298C88.3407 81.9952 88.202 81.7458 88.0877 81.485L86.0723 81.3605C86.0361 80.9191 85.9953 80.4844 85.9636 80.0475C85.8711 78.8703 86.2135 77.7001 86.926 76.7582C87.0298 76.6346 87.1011 76.4871 87.1336 76.329C87.166 76.1709 87.1585 76.0072 87.1117 75.8527C87.0438 75.5969 87.4944 75.194 87.7322 74.8702C88.3685 74.0009 89.417 73.512 89.8495 72.4299C90.0261 71.9907 90.4088 71.6353 90.6488 71.298L92.6076 70.9833C92.6959 71.9115 92.7706 72.6879 92.8454 73.4735L93.108 73.4599C93.9844 71.5628 93.699 69.6364 93.1692 67.6669C92.286 68.2057 91.7969 68.8961 91.6837 69.8944C91.6497 70.1797 91.2308 70.4219 90.9908 70.6777C89.7951 69.8107 90.9341 68.7671 90.4654 67.9023L90.6375 67.8095L91.5546 68.2328Z" fill="white"/>
            <path d="M74.3922 78.7843L74.9991 78.7526C74.938 78.979 74.8904 79.1465 74.8406 79.3276C75.7826 79.2801 75.9434 79.6174 76.0294 80.3169C77.0235 80.3011 77.4108 81.1251 77.8818 81.7929C77.9633 81.9106 77.7323 82.4064 77.524 82.5422C77.1164 82.8071 76.6182 82.9157 76.1653 83.1331C75.796 83.3018 75.4486 83.5147 75.1305 83.7669C74.1273 84.6113 73.0811 85.2474 71.6839 84.8716C71.4067 84.7916 71.113 84.7881 70.8339 84.8614C70.5548 84.9347 70.3008 85.0822 70.0988 85.2882C69.8543 85.5146 69.4648 85.5915 69.1274 85.6889C68.7717 85.8139 68.4007 85.8901 68.0245 85.9153C67.6018 85.8928 67.1816 85.8368 66.7677 85.7477C66.573 86.2775 66.3307 86.3839 65.7284 86.2005C65.451 86.1051 65.1541 86.0808 64.8649 86.1298C64.5757 86.1788 64.3034 86.2997 64.0731 86.4812C63.7606 86.7234 63.3031 86.7347 63.0495 87.1354C62.9023 87.3618 62.6125 87.5157 62.3702 87.7127C61.8924 87.303 61.8539 86.9521 62.3317 86.3544C62.5831 86.0375 62.8548 85.7953 62.8503 85.3086C62.8503 85.046 63.2216 84.7834 63.4209 84.5162C63.6474 84.2084 63.8738 83.896 64.1003 83.5835L64.5848 82.9044C64.9041 82.4517 65.203 81.9989 65.5495 81.5665C66.0635 80.9349 65.9073 80.3146 65.4657 79.794C64.843 79.0605 64.8588 78.1957 64.7524 77.3378C64.7237 77.0282 64.6545 76.7237 64.5464 76.4322C64.2429 75.6942 64.3403 75.4 65.1057 75.074C64.7683 74.4854 65.2143 74.3201 65.6332 74.1481C66.3851 73.8402 67.121 73.5278 67.121 72.5295C67.1237 72.49 67.1378 72.4523 67.1618 72.4208C67.3497 72.1446 68.8443 71.676 69.1545 71.8368C69.2231 71.889 69.2804 71.9547 69.3228 72.0299C69.3653 72.105 69.392 72.1879 69.4014 72.2737C69.3937 72.449 69.357 72.6219 69.2927 72.7853L69.4285 72.8306C69.4919 72.7445 69.5531 72.6585 69.6187 72.5748C69.9222 72.1967 70.3456 72.242 70.6377 72.6019C71.0182 73.0705 71.3171 73.6908 72.1096 73.5821C72.2183 73.5663 72.3791 73.7134 72.4697 73.8221C72.5883 73.9796 72.6893 74.1497 72.7708 74.3292C72.9208 74.6716 73.0879 75.0063 73.2713 75.332C73.4729 75.6444 73.688 76.0112 73.9937 76.1787C74.8836 76.6745 75.212 77.1182 74.8995 78.0576C74.827 78.284 74.476 78.404 74.2541 78.5738L74.3922 78.7843Z" fill="white"/>
            <path d="M85.1733 55.6009C85.0488 55.8001 85.0194 56.2279 84.5076 56.0536C84.4329 56.0287 84.1951 56.28 84.143 56.4272C83.9958 56.8799 83.9166 57.3485 83.7898 57.8081C83.752 57.8997 83.7057 57.9876 83.6516 58.0707C82.9949 57.3666 82.1616 56.8414 82.3133 55.705C82.3405 55.5035 82.1525 55.2726 82.062 55.0553C81.9125 54.6954 81.5706 54.3445 82.1774 54.0321C82.4333 53.9008 82.1571 53.07 81.831 52.7689C81.6773 52.6249 81.5674 52.4405 81.514 52.2369C81.3011 51.3676 80.9705 50.6115 79.8609 50.367C80.0472 50.154 80.2168 49.927 80.3681 49.6879C80.7123 49.0268 81.1788 49.4411 81.5004 49.6132C82.8092 50.2923 83.7263 51.4242 84.6231 52.5561C85.1167 53.1741 85.5447 53.9144 85.5673 54.7678C85.5673 54.8561 85.6511 54.9376 85.6783 55.0281C85.7259 55.1775 85.7576 55.3315 85.7961 55.4809L85.1733 55.6009Z" fill="white"/>
            <path d="M72.3588 48.8457L72.9113 49.0155C73.3234 48.1485 73.5702 48.1553 74.2315 49.0608L74.707 48.925C74.681 48.9849 74.65 49.0425 74.6142 49.097C74.4999 49.2749 74.3577 49.4331 74.1929 49.5656C74.0058 49.6876 73.7839 49.7448 73.5611 49.7286C73.2646 49.6628 72.9803 49.5505 72.7188 49.3958C72.539 49.2818 72.3706 49.1507 72.2161 49.0042L72.3588 48.8457Z" fill="white"/>
            <path d="M67.352 66.2927C67.6948 66.3747 68.0177 66.5245 68.3016 66.7333C68.5855 66.9421 68.8247 67.2056 69.0051 67.5084C69.2134 67.8502 69.6097 68.0789 70.0014 68.432C69.1545 68.432 68.8239 67.8661 68.4978 67.368C68.2714 67.0353 68.0925 66.7704 67.6441 66.75C67.4901 66.75 67.3429 66.535 67.1912 66.4195L67.352 66.2927Z" fill="white"/>
            <path d="M80.3772 62.107L79.1567 61.2015L79.836 60.7261C80.1508 61.1788 80.8505 61.4301 80.3772 62.107Z" fill="white"/>
            <path d="M80.1507 49.1604C79.4872 49.1015 78.971 50.1497 78.3098 49.4864L79.2155 48.8797C79.6209 48.6103 79.8722 48.8774 80.1507 49.1604Z" fill="white"/>
            <path d="M72.5331 70.5215C71.9534 70.3359 71.2854 70.1412 70.6377 69.8967C70.5132 69.8491 70.4679 69.6001 70.3842 69.4439C70.5495 69.4236 70.7623 69.3285 70.871 69.3964C71.4598 69.7631 72.0214 70.1819 72.5331 70.5215Z" fill="white"/>
            <path d="M90.9794 63.1234C91.7426 64.3617 91.781 64.6922 91.1764 64.9096C91.113 64.3459 91.0542 63.7935 90.9794 63.1234Z" fill="white"/>
            <path d="M87.6053 58.3061L87.166 57.4549C87.3789 57.4549 87.6642 57.3462 87.7887 57.4549C88.0288 57.6428 88.219 57.9575 87.6053 58.3061Z" fill="white"/>
            <path d="M76.0747 53.1107L74.9787 52.6806L75.5425 52.2278L76.0747 53.1107Z" fill="white"/>
            <path d="M90.2706 64.0312V62.9242H90.4541V64.0697L90.2706 64.0312Z" fill="white"/>
            <path d="M73.9687 48.2594L72.4448 48.1847V48.0376C72.9588 48.1281 73.4909 47.7704 73.9687 48.2594Z" fill="white"/>
            <path d="M78.4999 50.0614C77.5307 49.835 77.3337 49.6856 77.4537 49.3551L78.4999 50.0614Z" fill="white"/>
          </g>
          <defs>
            <clipPath id="clip0_1_7">
              
            </clipPath>
          </defs>
        </svg>
    </symbol>
    <!-- You can add more symbols here -->
</svg>
